# xmcd
#
# Track frame offsets:
#	150
#	11725
#	24087
#	39900
#	54900
#	65710
#	83705
#	100240
#	119952
#	137447
#	157400
#	176260
#	190607
#
# Disc length: 2771 seconds
#
# Revision: 2
# Processed by: cddbd v1.5.2PL0 Copyright (c) Steve Scherf et al.
# Submitted via: EZCDAudioConverter 2.1.7.1
#
DISCID=a40ad10d
DTITLE=Mocean Worker - Cinco De Mowo!
DYEAR=2007
DGENRE=
TTITLE0=Shake Ya Boogie
TTITLE1=Tickle It
TTITLE2=Olé Baby
TTITLE3=Que Bom
TTITLE4=Reykjavik
TTITLE5=Changes
TTITLE6=I Got You
TTITLE7=Siss Boom Bah!
TTITLE8=Brown Liquor
TTITLE9=Les And Eddie
TTITLE10=Son Of Sanford
TTITLE11=Pretty
TTITLE12=Songnumber3
EXTD=
EXTT0=
EXTT1=
EXTT2=
EXTT3=
EXTT4=
EXTT5=
EXTT6=
EXTT7=
EXTT8=
EXTT9=
EXTT10=
EXTT11=
EXTT12=
PLAYORDER=
